<?xml version="1.0" encoding="iso-8859-1"?>
<!-- Generator: Adobe Illustrator 19.0.0, SVG Export Plug-In . SVG Version: 6.00 Build 0)  -->
<svg version="1.1" id="Layer_1" xmlns="http://www.w3.org/2000/svg" xmlns:xlink="http://www.w3.org/1999/xlink" x="0px" y="0px"
	 viewBox="0 0 504.986 504.986" style="enable-background:new 0 0 504.986 504.986;" xml:space="preserve">
<g>
	<rect x="28.055" y="266.521" style="fill:#FFFFFF;" width="332.449" height="210.411"/>
	<rect x="144.482" y="28.055" style="fill:#FFFFFF;" width="332.449" height="210.411"/>
</g>
<path style="fill:#194F82;" d="M490.959,0H130.455c-7.715,0-14.027,6.312-14.027,14.027v224.438h-102.4
	C6.312,238.466,0,244.778,0,252.493v238.466c0,7.715,6.312,14.027,14.027,14.027h360.504c7.715,0,14.027-6.312,14.027-14.027
	V266.521h102.4c7.715,0,14.027-6.312,14.027-14.027V14.027C504.986,6.312,498.674,0,490.959,0z M476.932,238.466H144.482V28.055
	h332.449V238.466z M360.504,476.932H28.055V266.521h332.449V476.932z"/>
<rect x="56.11" y="294.575" style="fill:#FFC10D;" width="276.34" height="154.301"/>
<rect x="172.537" y="56.11" style="fill:#56ACE0;" width="276.34" height="154.301"/>
<g>
	<path style="fill:#194F82;" d="M77.852,291.068c-7.715,0-14.027,6.312-14.027,14.027v133.26c0,7.715,6.312,14.027,14.027,14.027
		s14.027-6.312,14.027-14.027v-133.26C91.879,297.381,85.567,291.068,77.852,291.068z"/>
	<path style="fill:#194F82;" d="M122.038,305.096v133.26c0,7.715,6.312,14.027,14.027,14.027s14.027-6.312,14.027-14.027v-133.26
		c0-7.715-6.312-14.027-14.027-14.027S122.038,297.381,122.038,305.096z"/>
	<path style="fill:#194F82;" d="M194.279,452.384c7.715,0,14.027-6.312,14.027-14.027v-133.26c0-7.715-6.312-14.027-14.027-14.027
		c-7.715,0-14.027,6.312-14.027,14.027v133.26C180.252,446.071,186.564,452.384,194.279,452.384z"/>
	<path style="fill:#194F82;" d="M252.493,452.384c7.715,0,14.027-6.312,14.027-14.027v-133.26c0-7.715-6.312-14.027-14.027-14.027
		c-7.715,0-14.027,6.312-14.027,14.027v133.26C238.466,446.071,244.778,452.384,252.493,452.384z"/>
	<path style="fill:#194F82;" d="M310.707,452.384c7.715,0,14.027-6.312,14.027-14.027v-133.26c0-7.715-6.312-14.027-14.027-14.027
		s-14.027,6.312-14.027,14.027v133.26C296.679,446.071,302.992,452.384,310.707,452.384z"/>
	<path style="fill:#194F82;" d="M194.279,213.918c7.715,0,14.027-6.312,14.027-14.027V66.63c0-7.715-6.312-14.027-14.027-14.027
		c-7.715,0-14.027,6.312-14.027,14.027v133.26C180.252,207.605,186.564,213.918,194.279,213.918z"/>
	<path style="fill:#194F82;" d="M252.493,213.918c7.715,0,14.027-6.312,14.027-14.027V66.63c0-7.715-6.312-14.027-14.027-14.027
		c-7.715,0-14.027,6.312-14.027,14.027v133.26C238.466,207.605,244.778,213.918,252.493,213.918z"/>
	<path style="fill:#194F82;" d="M310.707,213.918c7.715,0,14.027-6.312,14.027-14.027V66.63c0-7.715-6.312-14.027-14.027-14.027
		s-14.027,6.312-14.027,14.027v133.26C296.679,207.605,302.992,213.918,310.707,213.918z"/>
	<path style="fill:#194F82;" d="M368.921,213.918c7.715,0,14.027-6.312,14.027-14.027V66.63c0-7.715-6.312-14.027-14.027-14.027
		s-14.027,6.312-14.027,14.027v133.26C354.893,207.605,361.205,213.918,368.921,213.918z"/>
	<path style="fill:#194F82;" d="M427.134,213.918c7.715,0,14.027-6.312,14.027-14.027V66.63c0-7.715-6.312-14.027-14.027-14.027
		s-14.027,6.312-14.027,14.027v133.26C413.107,207.605,419.419,213.918,427.134,213.918z"/>
</g>
<g>
</g>
<g>
</g>
<g>
</g>
<g>
</g>
<g>
</g>
<g>
</g>
<g>
</g>
<g>
</g>
<g>
</g>
<g>
</g>
<g>
</g>
<g>
</g>
<g>
</g>
<g>
</g>
<g>
</g>
</svg>
